<?xml version="1.0" encoding="utf-8"?>
<svg version="1.0" width="1350.000000pt" height="897.000000pt" viewBox="0 0 1350.000000 897.000000" preserveAspectRatio="xMidYMid meet" xmlns="http://www.w3.org/2000/svg">
  <g transform="translate(0.000000,897.000000) scale(0.100000,-0.100000)" fill="#000000" stroke="none">
    <path d="M5815 8179 c-60 -4 -135 -12 -165 -18 -104 -22 -280 -70 -295 -81 -5 -4 -21 -11 -35 -15 -61 -19 -164 -74 -270 -144 -133 -87 -280 -228 -352 -336 -49 -74 -118 -205 -118 -225 0 -7 -6 -26 -14 -43 -29 -67 -46 -182 -46 -302 1 -281 88 -492 297 -723 35 -40 40 -73 23 -162 -11 -62 -17 -96 -35 -235 -9 -66 -22 -158 -30 -205 -8 -47 -16 -110 -19 -140 -3 -30 -7 -64 -8 -75 -3 -20 29 -35 41 -18 3 5 44 35 91 66 47 32 144 99 215 148 72 50 148 102 170 117 22 15 66 46 99 69 65 48 92 52 172 29 141 -41 208 -49 409 -49 199 0 301 11 440 49 28 7 77 20 110 29 33 9 74 23 90 30 128 56 129 56 220 15 37 -16 73 -30 81 -30 7 0 28 -6 46 -14 44 -18 105 -34 203 -52 258 -47 562 -38 754 22 57 18 116 18 133 0 8 -7 79 -57 159 -111 79 -54 217 -149 306 -212 90 -62 169 -113 177 -113 22 0 28 15 16 42 -5 13 -14 64 -20 113 -6 50 -17 135 -25 190 -9 55 -22 145 -30 200 -7 55 -19 133 -25 173 -9 61 -9 77 2 90 8 10 41 49 75 87 33 39 71 88 83 110 11 22 37 68 56 102 102 185 139 465 88 678 -35 147 -122 317 -226 442 -71 87 -160 163 -276 239 -54 35 -101 67 -107 72 -9 7 -215 96 -270 117 -35 13 -247 59 -320 70 -96 14 -419 8 -476 -9 -29 -9 -66 -16 -81 -16 -16 0 -53 -7 -81 -15 -112 -34 -153 -47 -182 -60 -16 -8 -48 -21 -70 -30 -22 -9 -49 -21 -60 -26 -21 -10 -36 -6 -150 45 -27 13 -84 33 -125 45 -41 13 -85 27 -98 32 -13 5 -37 9 -54 9 -16 0 -56 6 -87 14 -70 17 -261 25 -406 15z m350 -258 c28 -6 73 -15 100 -20 88 -17 139 -32 163 -47 22 -15 22 -15 -73 -111 -52 -52 -95 -99 -95 -103 0 -5 -6 -15 -14 -23 -26 -26 -103 -163 -131 -233 -44 -110 -63 -191 -70 -304 -9 -140 19 -377 48 -406 4 -4 7 -14 7 -23 1 -9 9 -34 20 -56 11 -22 19 -43 20 -47 0 -3 23 -46 52 -93 50 -85 133 -185 203 -247 46 -40 44 -54 -7 -62 -24 -4 -62 -13 -85 -21 -24 -8 -110 -22 -193 -30 -203 -22 -359 -9 -555 45 -44 12 -97 26 -117 32 -42 12 -41 12 -243 -126 -63 -44 -118 -77 -121 -73 -3 3 -1 27 5 54 11 51 31 188 38 265 l5 47 -82 83 c-102 103 -220 280 -220 330 0 8 -5 19 -10 24 -6 6 -19 61 -30 122 -19 110 -19 113 0 221 11 61 24 118 29 128 5 10 19 42 31 72 55 137 198 297 360 403 91 60 270 141 347 157 27 6 77 17 113 25 151 35 382 43 505 17z m1549 -6 c55 -9 106 -20 115 -24 9 -5 36 -12 61 -16 63 -11 236 -90 350 -160 126 -78 285 -255 338 -377 65 -149 77 -204 76 -343 -1 -96 -6 -123 -34 -210 -18 -55 -50 -126 -71 -159 -22 -32 -39 -62 -39 -66 0 -7 -54 -67 -151 -166 l-60 -60 16 -100 c9 -54 20 -124 25 -155 12 -66 13 -109 3 -109 -5 1 -26 14 -48 30 -22 16 -91 63 -153 105 l-113 77 -42 -12 c-23 -6 -67 -17 -97 -24 -30 -8 -66 -18 -80 -24 -14 -5 -91 -17 -171 -27 -124 -14 -165 -15 -270 -6 -169 15 -348 50 -373 72 -4 4 17 31 49 61 147 136 259 325 311 523 15 56 19 107 19 260 0 194 -6 235 -52 342 -7 17 -13 35 -13 41 0 9 -36 81 -72 142 -43 73 -144 197 -199 245 -31 28 -58 55 -58 61 -2 21 93 50 289 89 92 18 299 13 444 -10z m-714 -485 c0 -20 -7 -20 -290 -20 -235 0 -290 3 -290 13 0 8 3 17 7 20 3 4 134 7 290 7 276 0 283 0 283 -20z m120 -285 c0 -13 -52 -15 -410 -15 -358 0 -410 2 -410 15 0 13 52 15 410 15 358 0 410 -2 410 -15z m-2 -287 c3 -17 -21 -18 -402 -18 -400 0 -406 0 -406 20 0 20 5 20 402 18 374 -3 403 -4 406 -20z m-113 -288 c0 -13 -39 -15 -284 -18 -277 -2 -322 2 -305 29 3 5 131 8 297 7 252 -3 292 -5 292 -18z"/>
    <path d="M2453 4909 c-10 -10 -13 -85 -13 -308 0 -163 4 -302 8 -308 6 -9 57 -13 177 -15 l170 -3 3 -1102 2 -1103 -22 0 c-13 -1 -89 -1 -169 0 -114 1 -148 -2 -158 -13 -8 -11 -11 -97 -9 -318 l3 -304 725 0 725 0 3 307 c2 299 2 307 -18 318 -12 6 -75 10 -156 9 -74 0 -137 1 -139 3 -8 8 -6 631 2 639 4 4 161 10 348 12 250 3 363 9 425 20 95 18 175 39 186 50 4 4 14 7 22 7 24 0 228 98 244 117 6 7 16 13 22 13 37 0 269 245 302 320 6 14 25 54 42 90 36 77 57 138 67 200 4 25 12 53 17 63 5 11 14 80 19 155 14 194 -3 324 -57 449 -8 17 -14 36 -14 41 0 6 -24 50 -52 98 -47 79 -147 198 -217 262 -83 74 -381 242 -429 242 -11 0 -42 6 -68 14 -179 53 -101 49 -1074 53 -724 4 -908 2 -917 -8z m1627 -654 c41 -10 79 -21 84 -26 6 -5 16 -9 24 -9 44 0 196 -138 209 -190 3 -14 12 -34 18 -45 23 -37 39 -188 26 -238 -6 -25 -11 -56 -11 -68 0 -42 -60 -147 -108 -190 -53 -46 -147 -94 -207 -104 -22 -4 -48 -12 -57 -16 -22 -12 -449 -22 -465 -11 -10 6 -13 113 -13 455 -1 246 2 453 6 459 11 17 402 4 494 -17z"/>
    <path d="M5673 4913 c-10 -4 -13 -77 -13 -319 l0 -314 178 -2 177 -3 0 -1105 0 -1104 -141 3 c-77 1 -157 -1 -177 -4 l-37 -7 0 -314 0 -314 750 0 750 0 0 315 0 315 -42 1 c-24 0 -104 1 -178 2 l-135 2 0 1105 0 1105 178 3 177 2 0 314 c0 277 -2 315 -16 320 -19 7 -1453 7 -1471 -1z"/>
    <path d="M7533 4913 c-10 -4 -13 -77 -13 -319 l0 -314 178 -2 177 -3 0 -1105 0 -1105 -155 -2 c-85 0 -165 -1 -177 -2 l-23 -1 0 -315 0 -315 750 0 750 0 0 315 0 315 -142 2 c-79 1 -159 2 -178 2 l-35 1 -3 568 c-1 312 1 567 6 567 4 0 254 -246 555 -547 l547 -548 0 -337 0 -338 580 0 c319 0 580 3 581 8 5 75 1 661 -4 670 -6 9 -46 12 -145 12 l-137 0 -144 147 c-79 82 -325 331 -547 555 -222 224 -404 411 -404 416 0 5 57 58 127 118 70 60 163 141 207 179 45 39 97 83 116 99 40 33 166 143 191 167 9 9 24 21 32 25 8 5 33 25 54 45 32 29 104 92 228 198 11 9 56 48 100 86 l79 70 126 3 c101 3 127 6 138 20 9 12 12 95 12 334 0 303 -1 318 -19 328 -21 11 -1137 15 -1165 4 -14 -5 -16 -44 -16 -333 0 -305 -1 -329 -19 -347 -24 -25 -71 -68 -211 -189 -63 -55 -117 -102 -120 -105 -3 -3 -43 -38 -90 -78 -47 -41 -101 -88 -120 -106 -19 -17 -80 -69 -135 -116 -55 -47 -104 -90 -110 -96 -5 -6 -59 -53 -120 -104 -60 -52 -120 -105 -132 -117 -12 -13 -27 -23 -33 -23 -7 0 -9 150 -8 488 l3 487 178 3 177 2 0 314 c0 277 -2 315 -16 320 -19 7 -1453 7 -1471 -1z"/>
  </g>
  <text style="fill: rgb(51, 51, 51); font-family: &quot;Franklin Gothic&quot;; font-size: 64px; font-weight: 700; letter-spacing: 9px; word-spacing: -2.6px; white-space: pre;" transform="matrix(1.210063, 0, 0, 1.047689, -195.404022, -36.615059)" x="360.968" y="825.869">KEEP CONNECTIONS</text>
</svg>